:FULLY-SPECIFIED
:FORCE-ALL-JOINTS-BE-3DOF
:DEGREES
1121
root 0.911939 14.7039 -28.4216 361.686 6.28064 363.278
lfemur -28.2772 6.58498 -23.2094
ltibia 71.1955 0 0
lfoot -27.2869 25.8433 0
ltoes -19.4021 0 0
rfemur -62.5957 -8.93963 21.1291
rtibia 68.7465 0 0
rfoot 13.4453 0.908146 0
rtoes -9.30816 0 0
lowerback 15.7949 0.93729 -10.7158
upperback -0.666699 -0.56641 2.14003
thorax -9.54961 0.334983 8.62339
lowerneck -4.7654 -3.48154 -5.45515
upperneck 4.7111 -4.55724 4.98934
head 2.62672 -2.22467 2.41134
lclavicle -6.97484e-15 -1.09058e-14 0
lhumerus 71.6901 -39.007 48.5985
lradius 95.9951 0 0
lwrist 27.6709 0 0
lhand -28.5082 31.5519 0
lfingers 7.12502 0 0
lthumb -5.25986 70.3129 0
rclavicle -4.80791e-14 -9.65131e-15 0
rhumerus -18.7583 21.2928 -88.9203
rradius 89.0636 0 0
rwrist -27.3873 0 0
rhand -21.9192 -45.3709 0
rfingers 7.12502 0 0
rthumb 22.8475 -64.7028 0
1122
root 0.867803 14.7358 -28.22 361.342 8.06128 363.219
lfemur -26.9001 6.06581 -22.9362
ltibia 70.653 0 0
lfoot -27.5329 25.9084 0
ltoes -19.3003 0 0
rfemur -61.5456 -8.94827 19.9995
rtibia 68.4453 0 0
rfoot 14.876 1.33124 0
rtoes -9.09127 0 0
lowerback 15.6599 0.883437 -10.5301
upperback -0.722873 -0.583895 2.20295
thorax -9.53098 0.320452 8.58784
lowerneck -4.13509 -4.00006 -6.06388
upperneck 4.81926 -5.26774 5.34708
head 2.62609 -2.58816 2.62184
lclavicle -9.48594e-15 -1.24275e-14 0
lhumerus 65.8248 -38.1074 51.0618
lradius 96.4414 0 0
lwrist 27.6094 0 0
lhand -27.6931 30.9126 0
lfingers 7.12502 0 0
lthumb -4.23374 68.7892 0
rclavicle -4.61083e-14 -9.44567e-15 0
rhumerus -15.002 19.9807 -86.7302
rradius 88.7176 0 0
rwrist -25.7924 0 0
rhand -22.6874 -45.0497 0
rfingers 7.12502 0 0
rthumb 23.7115 -63.9368 0
1123
root 0.821389 14.7709 -28.0143 360.972 9.73807 363.102
lfemur -25.523 5.54663 -22.6631
ltibia 70.1106 0 0
lfoot -27.779 25.9735 0
ltoes -19.1986 0 0
rfemur -60.4954 -8.95692 18.8698
rtibia 68.1441 0 0
rfoot 16.3066 1.75433 0
rtoes -8.87439 0 0
lowerback 15.4735 0.898743 -10.2681
upperback -0.638799 -0.484665 2.25764
thorax -9.35188 0.341446 8.46663
lowerneck -4.05909 -4.58737 -6.70672
upperneck 5.08022 -6.05494 5.79769
head 2.8005 -2.98137 2.86085
lclavicle -1.1997e-14 -1.39492e-14 0
lhumerus 59.9595 -37.2077 53.525
lradius 96.8878 0 0
lwrist 27.5479 0 0
lhand -26.878 30.2733 0
lfingers 7.12502 0 0
lthumb -3.20761 67.2655 0
rclavicle -4.41376e-14 -9.24004e-15 0
rhumerus -11.2456 18.6687 -84.5401
rradius 88.3716 0 0
rwrist -24.1974 0 0
rhand -23.4556 -44.7285 0
rfingers 7.12502 0 0
rthumb 24.5755 -63.1709 0
1124
root 0.778825 14.8072 -27.8072 360.587 11.4383 362.999
lfemur -24.1459 5.02745 -22.39
ltibia 69.5681 0 0
lfoot -28.0251 26.0386 0
ltoes -19.0968 0 0
rfemur -59.4452 -8.96556 17.7402
rtibia 67.84 0 0
rfoot 17.7372 2.17742 0
rtoes -8.6575 0 0
lowerback 15.3063 0.827546 -10.0508
upperback -0.834001 -0.522896 2.32696
thorax -9.46593 0.329754 8.42673
lowerneck -2.86706 -5.00805 -7.41688
upperneck 5.161 -6.68236 6.21983
head 2.70514 -3.31534 3.13271
lclavicle -1.45082e-14 -1.5471e-14 0
lhumerus 54.0942 -36.3081 55.9883
lradius 97.2199 0 0
lwrist 28.5731 0 0
lhand -26.0629 29.634 0
lfingers 7.12502 0 0
lthumb -2.18149 65.7417 0
rclavicle -4.21668e-14 -9.0344e-15 0
rhumerus -7.48916 17.3567 -82.35
rradius 88.0256 0 0
rwrist -22.6025 0 0
rhand -24.2239 -44.4073 0
rfingers 7.12502 0 0
rthumb 25.4395 -62.405 0
1125
root 0.740275 14.8383 -27.5971 360.235 12.8723 362.827
lfemur -22.7688 4.50828 -22.1169
ltibia 69.0256 0 0
lfoot -28.2711 26.1037 0
ltoes -18.995 0 0
rfemur -58.395 -8.97421 16.6105
rtibia 67.536 0 0
rfoot 19.1679 2.60051 0
rtoes -8.44061 0 0
lowerback 14.9638 0.787649 -9.70454
upperback -0.740253 -0.463829 2.43033
thorax -9.17682 0.322119 8.31588
lowerneck -2.94345 -5.49745 -8.11216
upperneck 5.6333 -7.33438 6.51038
head 2.98421 -3.64714 3.3312
lclavicle -1.70193e-14 -1.69927e-14 0
lhumerus 48.229 -35.4085 58.4516
lradius 97.5519 0 0
lwrist 29.5984 0 0
lhand -25.2477 28.9946 0
lfingers 7.12502 0 0
lthumb -1.15537 64.218 0
rclavicle -4.0196e-14 -8.82876e-15 0
rhumerus -3.73277 16.0447 -80.1599
rradius 87.6796 0 0
rwrist -21.0076 0 0
rhand -24.9922 -44.0861 0
rfingers 7.12502 0 0
rthumb 26.3034 -61.6391 0
1126
root 0.699485 14.8777 -27.383 359.791 14.4241 362.651
lfemur -21.3917 3.9891 -21.8437
ltibia 68.4832 0 0
lfoot -28.5172 26.1688 0
ltoes -18.8932 0 0
rfemur -57.3449 -8.98286 15.4808
rtibia 67.2319 0 0
rfoot 20.5985 3.0236 0
rtoes -8.22372 0 0
lowerback 14.9311 0.676543 -9.3647
upperback -0.931583 -0.547799 2.50011
thorax -9.35293 0.285176 8.21878
lowerneck -2.26421 -5.83707 -8.7558
upperneck 6.26277 -7.87357 7.06332
head 2.8555 -3.9094 3.25947
lclavicle -1.95304e-14 -1.85144e-14 0
lhumerus 42.3637 -34.5088 60.9149
lradius 97.884 0 0
lwrist 30.6236 0 0
lhand -24.4326 28.3553 0
lfingers 7.12502 0 0
lthumb -0.129246 62.6943 0
rclavicle -3.82252e-14 -8.62312e-15 0
rhumerus 0.0236214 14.7326 -77.9697
rradius 87.7885 0 0
rwrist -19.4126 0 0
rhand -25.7604 -43.7648 0
rfingers 7.12502 0 0
rthumb 27.1674 -60.8731 0
1127
root 0.662975 14.9215 -27.166 359.353 15.9334 362.518
lfemur -20.0146 3.46993 -21.5706
ltibia 67.9407 0 0
lfoot -28.7633 26.2339 0
ltoes -18.7915 0 0
rfemur -56.2947 -8.9915 14.3512
rtibia 66.9278 0 0
rfoot 22.0291 3.44669 0
rtoes -8.00683 0 0
lowerback 14.3769 0.554062 -9.13013
upperback -0.790809 -0.600987 2.62115
thorax -8.86654 0.217007 8.20885
lowerneck -1.97354 -6.19301 -9.27244
upperneck 6.59273 -8.37089 7.13463
head 2.97151 -4.172 3.34157
lclavicle -2.20415e-14 -2.00361e-14 0
lhumerus 36.4984 -33.6092 63.3781
lradius 98.216 0 0
lwrist 31.6488 0 0
lhand -23.6175 27.716 0
lfingers 7.12502 0 0
lthumb 0.896876 61.1706 0
rclavicle -3.62544e-14 -8.41749e-15 0
rhumerus 3.78001 13.4206 -75.7796
rradius 87.8975 0 0
rwrist -17.8177 0 0
rhand -26.5286 -43.4436 0
rfingers 7.12502 0 0
rthumb 28.0314 -60.1072 0
1128
root 0.626439 14.963 -26.9459 358.849 17.3399 362.359
lfemur -18.6375 2.95075 -21.2975
ltibia 67.3982 0 0
lfoot -29.0094 26.299 0
ltoes -18.6897 0 0
rfemur -55.2445 -9.00015 13.2215
rtibia 66.6238 0 0
rfoot 23.4598 3.86978 0
rtoes -7.78995 0 0
lowerback 14.1347 0.41264 -8.76359
upperback -0.862979 -0.70397 2.65352
thorax -8.78697 0.148581 8.0473
lowerneck -1.49002 -6.44314 -9.68581
upperneck 7.05306 -8.75035 7.13563
head 3.08029 -4.38084 3.39649
lclavicle -2.45526e-14 -2.15579e-14 0
lhumerus 30.6331 -32.7095 65.8414
lradius 98.5481 0 0
lwrist 32.6741 0 0
lhand -22.8024 27.0767 0
lfingers 7.12502 0 0
lthumb 1.923 59.6469 0
rclavicle -3.42836e-14 -8.21185e-15 0
rhumerus 7.53641 12.1086 -73.5895
rradius 88.0064 0 0
rwrist -16.2227 0 0
rhand -27.2969 -43.1224 0
rfingers 7.12502 0 0
rthumb 28.8954 -59.3413 0
1129
root 0.590579 14.9998 -26.7255 358.399 18.6863 362.241
lfemur -17.588 3.01509 -20.9647
ltibia 66.8557 0 0
lfoot -29.2554 26.3641 0
ltoes -18.5879 0 0
rfemur -54.1944 -9.00879 12.0919
rtibia 66.3197 0 0
rfoot 24.8904 4.29287 0
rtoes -7.57306 0 0
lowerback 13.8589 0.269982 -8.49753
upperback -0.866996 -0.818854 2.7281
thorax -8.61044 0.0724864 7.99023
lowerneck -1.33488 -6.63236 -10.068
upperneck 7.49704 -9.01414 7.04473
head 3.22444 -4.52889 3.41334
lclavicle -2.70637e-14 -2.30796e-14 0
lhumerus 24.7678 -31.8099 68.3047
lradius 98.8802 0 0
lwrist 33.6993 0 0
lhand -21.9873 26.4374 0
lfingers 7.12502 0 0
lthumb 2.94912 58.1232 0
rclavicle -3.23128e-14 -8.00621e-15 0
rhumerus 11.2928 10.7966 -71.3994
rradius 88.1153 0 0
rwrist -14.6278 0 0
rhand -28.0651 -42.8012 0
rfingers 7.12502 0 0
rthumb 29.7593 -58.5754 0
